<svg width="466" height="207" viewBox="0 0 466 207" fill="none" xmlns="http://www.w3.org/2000/svg">
<path d="M0 10C0 4.47716 4.47715 0 10 0H320C325.523 0 330 4.47715 330 10V93C330 98.5228 325.523 103 320 103H85.4405C83.211 103 81.0454 103.745 79.2878 105.117L16.1527 154.393C9.58659 159.518 0 154.839 0 146.51V10Z" fill="#3988FF" fill-opacity="0.9"/>
<line x1="42" y1="37.5" x2="282" y2="37.5" stroke="black" stroke-width="3"/>
<line x1="42" y1="65.5" x2="165" y2="65.5" stroke="black" stroke-width="3"/>
<path d="M204 84.5H456C461.247 84.5 465.5 88.7533 465.5 94V192.082C465.5 198.841 458.642 203.438 452.391 200.87L412.016 184.287C410.75 183.767 409.395 183.5 408.026 183.5H204C198.753 183.5 194.5 179.247 194.5 174V94C194.5 88.7533 198.753 84.5 204 84.5Z" fill="black" fill-opacity="0.87" stroke="#3988FF"/>
<circle cx="258" cy="132" r="7" fill="#3988FF"/>
<circle cx="330" cy="132" r="7" fill="#3988FF"/>
<circle cx="402" cy="132" r="7" fill="#3988FF"/>
</svg>
