<svg width="323" height="161" viewBox="0 0 323 161" fill="none" xmlns="http://www.w3.org/2000/svg">
<path fill-rule="evenodd" clip-rule="evenodd" d="M117.179 37.2501V2.24599C117.179 1.01068 116.169 0 114.933 0H2.24599C1.01069 0 0 1.01068 0 2.24599V37.2501V123.709H155.614V158.713C155.614 159.948 156.624 160.959 157.86 160.959H320.62C321.856 160.959 322.866 159.948 322.866 158.713V123.709V37.2501H117.179ZM8.83848 46.0886H314.028V114.87H8.83848V46.0886Z" fill="white"/>
<path d="M30.888 56.0657C33.9513 56.0657 36.0547 56.6469 37.1981 57.8093C38.3415 58.9717 38.9132 60.8317 38.9132 63.389C38.9132 64.1795 38.87 65.0513 38.7837 66.0045C38.6975 66.9578 38.5896 67.9923 38.4601 69.1083L35.2242 93.6591C34.7927 96.9604 33.768 99.3899 32.15 100.948C30.5321 102.505 28.4287 103.284 25.84 103.284H17.4912L23.51 56.6933C26.142 56.2749 28.6013 56.0657 30.888 56.0657ZM26.6813 96.7279C27.1559 96.7279 27.5334 96.5187 27.8139 96.1002C28.0943 95.6817 28.3424 94.6588 28.5581 93.0313L31.6646 69.6662C31.7509 68.7828 31.8049 68.0155 31.8264 67.3646C31.848 66.7136 31.8804 66.1324 31.9235 65.6209C31.9235 64.412 31.7725 63.5983 31.4705 63.1798C31.1685 62.7613 30.6939 62.5521 30.0467 62.5521C29.9604 62.5521 29.7877 62.5986 29.5289 62.6916L25.128 96.7279H26.6813ZM46.3559 56.3446H60.0762L56.5814 103.284H49.9801L51.0803 88.9861H47.003L44.5437 103.284H37.7482L46.3559 56.3446ZM48.1032 82.4996H51.7275L53.3454 62.5521H51.6627L48.1032 82.4996ZM66.4187 56.3446H72.9553L74.5732 76.9199L77.2268 56.3446H83.6987L77.6151 103.284H71.0137L69.4605 82.1509L66.7423 103.284H60.3351L66.4187 56.3446ZM87.4523 103.284H82.2101L82.922 97.4254H88.229L87.4523 103.284ZM110.492 103.284L113.469 80.7559L107.968 103.284H101.69V80.6862L98.7781 103.284H92.2415L98.3251 56.3446H107.192V83.0576L114.57 56.3446H123.112L117.029 103.284H110.492ZM129.39 56.3446H143.111L139.616 103.284H133.014L134.115 88.9861H130.037L127.578 103.284H120.783L129.39 56.3446ZM131.138 82.4996H134.762L136.38 62.5521H134.697L131.138 82.4996ZM153.013 83.0576H152.689L150.1 103.284H143.24L149.324 56.3446H156.184L153.724 74.8972H154.048L158.773 56.3446H165.827L158.643 78.7333L160.649 103.284H153.724L153.013 83.0576ZM183.819 56.3446L182.913 62.8311H176.376L174.823 74.4787H179.936L179.094 81.1744H173.981L171.975 96.7279H178.641L177.735 103.284H164.403L170.487 56.3446H183.819ZM189.902 103.912C187.702 103.912 185.976 103.296 184.725 102.064C183.474 100.831 182.848 98.9598 182.848 96.449C182.848 96.1234 182.859 95.7747 182.88 95.4027C182.902 95.0308 182.934 94.6588 182.977 94.2868L184.207 85.0105H190.938L189.773 93.7288C189.643 94.5192 189.579 95.147 189.579 95.612C189.579 96.4024 189.687 96.8907 189.902 97.0766C190.118 97.2626 190.398 97.3557 190.744 97.3557C191.175 97.3557 191.563 97.1464 191.909 96.7279C192.254 96.3095 192.534 95.3098 192.75 93.7288L193.591 87.4516C193.634 87.2191 193.656 87.0215 193.656 86.8588C193.656 86.6961 193.656 86.5682 193.656 86.4752C193.656 85.0337 193.257 83.8713 192.459 82.9878C191.661 82.1044 190.776 81.2325 189.805 80.3723C188.834 79.5121 187.95 78.5241 187.152 77.4081C186.354 76.2921 185.954 74.8042 185.954 72.9443C185.954 72.5723 185.954 72.1655 185.954 71.7237C185.954 71.282 185.998 70.8054 186.084 70.294L186.796 65.3419C187.27 62.0406 188.274 59.6111 189.805 58.0534C191.337 56.4957 193.397 55.7169 195.986 55.7169C198.186 55.7169 199.869 56.3097 201.034 57.4954C202.199 58.6811 202.781 60.5294 202.781 63.0403C202.781 63.4123 202.771 63.7959 202.749 64.1911C202.727 64.5863 202.695 64.9467 202.652 65.2722L201.681 72.6653H195.015L195.921 65.8999C196.051 65.0629 196.115 64.3422 196.115 63.7378C196.115 63.0868 196.029 62.6683 195.856 62.4823C195.684 62.2963 195.425 62.2033 195.08 62.2033C194.605 62.2033 194.249 62.4242 194.012 62.8659C193.775 63.3076 193.57 64.319 193.397 65.8999L192.75 71.0612C192.707 71.1541 192.685 71.282 192.685 71.4448C192.685 71.6075 192.685 71.7586 192.685 71.8981C192.685 72.828 192.879 73.6069 193.268 74.2346C193.656 74.8624 194.131 75.432 194.692 75.9434C195.252 76.4549 195.878 76.9431 196.568 77.4081C197.259 77.8731 197.884 78.4194 198.445 79.0471C199.006 79.6749 199.481 80.4188 199.869 81.279C200.257 82.1392 200.451 83.1971 200.451 84.4525C200.451 84.964 200.43 85.4638 200.387 85.9521C200.344 86.4403 200.279 86.9401 200.193 87.4516L199.351 94.3565C198.963 97.5649 197.938 99.9595 196.277 101.54C194.616 103.121 192.491 103.912 189.902 103.912ZM207.441 103.284H202.199L202.911 97.4254H208.218L207.441 103.284ZM218.12 103.912C215.919 103.912 214.194 103.296 212.942 102.064C211.691 100.831 211.065 98.9598 211.065 96.449C211.065 96.1234 211.076 95.7747 211.098 95.4027C211.119 95.0308 211.152 94.6588 211.195 94.2868L212.424 85.0105H219.155L217.99 93.7288C217.861 94.5192 217.796 95.147 217.796 95.612C217.796 96.4024 217.904 96.8907 218.12 97.0766C218.336 97.2626 218.616 97.3557 218.961 97.3557C219.393 97.3557 219.781 97.1464 220.126 96.7279C220.471 96.3095 220.752 95.3098 220.967 93.7288L221.809 87.4516C221.852 87.2191 221.873 87.0215 221.873 86.8588C221.873 86.6961 221.873 86.5682 221.873 86.4752C221.873 85.0337 221.474 83.8713 220.676 82.9878C219.878 82.1044 218.993 81.2325 218.023 80.3723C217.052 79.5121 216.167 78.5241 215.369 77.4081C214.571 76.2921 214.172 74.8042 214.172 72.9443C214.172 72.5723 214.172 72.1655 214.172 71.7237C214.172 71.282 214.215 70.8054 214.301 70.294L215.013 65.3419C215.488 62.0406 216.491 59.6111 218.023 58.0534C219.554 56.4957 221.615 55.7169 224.203 55.7169C226.404 55.7169 228.086 56.3097 229.251 57.4954C230.416 58.6811 230.999 60.5294 230.999 63.0403C230.999 63.4123 230.988 63.7959 230.966 64.1911C230.945 64.5863 230.912 64.9467 230.869 65.2722L229.899 72.6653H223.233L224.139 65.8999C224.268 65.0629 224.333 64.3422 224.333 63.7378C224.333 63.0868 224.246 62.6683 224.074 62.4823C223.901 62.2963 223.642 62.2033 223.297 62.2033C222.823 62.2033 222.467 62.4242 222.229 62.8659C221.992 63.3076 221.787 64.319 221.615 65.8999L220.967 71.0612C220.924 71.1541 220.903 71.282 220.903 71.4448C220.903 71.6075 220.903 71.7586 220.903 71.8981C220.903 72.828 221.097 73.6069 221.485 74.2346C221.873 74.8624 222.348 75.432 222.909 75.9434C223.47 76.4549 224.095 76.9431 224.786 77.4081C225.476 77.8731 226.102 78.4194 226.663 79.0471C227.224 79.6749 227.698 80.4188 228.086 81.279C228.475 82.1392 228.669 83.1971 228.669 84.4525C228.669 84.964 228.647 85.4638 228.604 85.9521C228.561 86.4403 228.496 86.9401 228.41 87.4516L227.569 94.3565C227.18 97.5649 226.156 99.9595 224.495 101.54C222.833 103.121 220.708 103.912 218.12 103.912ZM250.997 56.3446L250.091 62.8311H245.496L240.254 103.284H233.588L238.83 62.8311H234.041L234.882 56.3446H250.997ZM256.757 103.912C254.556 103.912 252.831 103.307 251.579 102.098C250.328 100.889 249.703 99.0296 249.703 96.5187C249.703 96.1932 249.713 95.8445 249.735 95.4725C249.756 95.1005 249.789 94.7285 249.832 94.3565L254.815 56.3446H261.546L256.692 93.7288C256.563 94.5658 256.498 95.2167 256.498 95.6817C256.498 96.4722 256.595 96.9488 256.789 97.1115C256.983 97.2742 257.253 97.3557 257.598 97.3557C258.03 97.3557 258.386 97.1464 258.666 96.7279C258.947 96.3095 259.195 95.3098 259.41 93.7288L264.264 56.3446H271.06L266.076 94.2868C265.645 97.4951 264.62 99.9014 263.002 101.506C261.384 103.11 259.303 103.912 256.757 103.912ZM288.34 56.3446L287.498 62.8311H281.674L279.926 76.2224H285.104L284.198 82.9181H279.02L276.431 103.284H269.571L275.655 56.3446H288.34ZM304.39 56.3446L303.549 62.8311H297.724L295.977 76.2224H301.154L300.248 82.9181H295.07L292.482 103.284H285.621L291.705 56.3446H304.39Z" fill="white"/>
<path d="M18.1768 11.8497H32.7333C33.7871 11.8497 34.6835 12.2231 35.4229 12.9701C36.1621 13.717 36.5318 14.6142 36.5318 15.6617V26.5827C36.5318 27.6301 36.1621 28.5274 35.4229 29.2743C34.6835 30.0213 33.7871 30.3947 32.7333 30.3947H18.1768V11.8497ZM22.1282 15.8678V26.3766H32.5294V15.8678H22.1282ZM50.5785 15.4556C51.5983 15.4556 52.4693 15.8248 53.1916 16.5632C53.9139 17.3016 54.2751 18.1773 54.2751 19.1904V30.3947H42.9816C41.9619 30.3947 41.0909 30.0255 40.3685 29.2872C39.6462 28.5488 39.2851 27.6731 39.2851 26.66V20.9419H50.3746V19.3965H39.2851V15.4556H50.5785ZM50.3746 26.4539V24.3934H43.1855V26.4539H50.3746ZM68.0923 15.4556C69.112 15.4556 69.983 15.8248 70.7054 16.5632C71.4276 17.3016 71.7888 18.1773 71.7888 19.1904V30.3947H67.8884V19.3965H60.6992V30.3947H56.7988V15.4556H68.0923ZM74.4911 30.3947V15.4556H78.3915V30.3947H74.4911ZM74.4911 10.5618H78.3915V14.5284H74.4911V10.5618ZM91.8519 15.4556C92.8715 15.4556 93.7426 15.8248 94.4649 16.5632C95.1872 17.3016 95.5483 18.1773 95.5483 19.1904V24.9085H84.4588V26.4539H95.5483V30.3947H84.2549C83.2522 30.3947 82.3854 30.0255 81.6546 29.2872C80.9238 28.5488 80.5584 27.6731 80.5584 26.66V19.1904C80.5584 18.1773 80.9238 17.3016 81.6546 16.5632C82.3854 15.8248 83.2522 15.4556 84.2549 15.4556H91.8519ZM84.4588 21.457H91.6479V19.3965H84.4588V21.457ZM97.5623 10.536H101.488V26.4539H104.471V30.3947H101.259C100.256 30.3947 99.3893 30.0255 98.6585 29.2872C97.9278 28.5488 97.5623 27.6731 97.5623 26.66V10.536Z" fill="black"/>
<path d="M170.287 130.622H181.19C182.236 130.622 183.131 130.995 183.877 131.742C184.623 132.489 184.996 133.386 184.996 134.434V145.355C184.996 146.402 184.623 147.299 183.877 148.046C183.131 148.793 182.236 149.167 181.19 149.167H170.287C169.224 149.167 168.324 148.797 167.587 148.059C166.85 147.321 166.481 146.419 166.481 145.355V134.434C166.481 133.369 166.85 132.467 167.587 131.729C168.324 130.991 169.224 130.622 170.287 130.622ZM170.467 134.64V145.148H180.959V134.64H170.467ZM196.612 138.168H191.084V145.226H196.612V149.167H190.903C189.858 149.167 188.971 148.797 188.242 148.059C187.513 147.321 187.149 146.445 187.149 145.432V129.797H191.084V134.227H196.612V138.168ZM207.611 133.3H202.083V134.227H207.611V138.168H202.083V149.167H198.148V133.068C198.148 132.055 198.513 131.18 199.241 130.441C199.97 129.703 200.857 129.334 201.903 129.334H207.611V133.3ZM208.839 149.167V134.227H212.773V149.167H208.839ZM208.839 129.334H212.773V133.3H208.839V129.334ZM226.601 134.227C227.63 134.227 228.508 134.597 229.237 135.335C229.965 136.073 230.33 136.949 230.33 137.962V149.167H226.395V138.168H219.144V149.167H215.21V134.227H226.601ZM235.517 134.227H243.18C244.209 134.227 245.087 134.597 245.816 135.335C246.545 136.073 246.909 136.949 246.909 137.962V145.432C246.909 146.445 246.545 147.321 245.816 148.059C245.087 148.797 244.209 149.167 243.18 149.167H235.517C234.506 149.167 233.632 148.797 232.894 148.059C232.157 147.321 231.789 146.445 231.789 145.432V137.962C231.789 136.949 232.157 136.073 232.894 135.335C233.632 134.597 234.506 134.227 235.517 134.227ZM235.723 138.168V145.226H242.974V138.168H235.723ZM267.885 134.227H272.051L266.445 149.167H263.462L259.425 140.255L255.568 149.167H252.611L246.748 134.227H250.914L254.128 141.98L255.234 139.405C255.405 139.01 255.761 138.203 256.301 136.983C256.841 135.764 257.239 134.846 257.496 134.227H261.302L264.902 142.083L267.885 134.227ZM287.293 137.962V138.709H283.333V138.168H276.081V139.714H283.539C284.584 139.714 285.471 140.079 286.2 140.808C286.929 141.538 287.293 142.418 287.293 143.448V145.432C287.293 146.445 286.929 147.321 286.2 148.059C285.471 148.797 284.584 149.167 283.539 149.167H275.876C274.864 149.167 273.99 148.797 273.253 148.059C272.516 147.321 272.147 146.445 272.147 145.432V144.685H276.081V145.226H283.333V143.68H275.876C274.864 143.68 273.99 143.311 273.253 142.573C272.516 141.834 272.147 140.959 272.147 139.946V137.962C272.147 136.949 272.516 136.073 273.253 135.335C273.99 134.597 274.864 134.227 275.876 134.227H283.539C284.584 134.227 285.471 134.597 286.2 135.335C286.929 136.073 287.293 136.949 287.293 137.962ZM299.706 134.227H303.666V135.567L298.112 141.697L303.666 147.827V149.167H299.706L294.641 143.68H292.635V149.167H288.701V129.334H292.635V139.714H294.641L299.706 134.227ZM304.92 149.167V134.227H308.854V149.167H304.92ZM304.92 129.334H308.854V133.3H304.92V129.334Z" fill="black"/>
</svg>
